<svg width="25" height="24" viewBox="0 0 25 24" fill="none" xmlns="http://www.w3.org/2000/svg">
<g clip-path="url(#clip0_288_82)">
<path d="M20.9217 15.5409C19.6876 15.5409 18.4935 15.3455 17.3798 14.9938C17.0286 14.8765 16.6373 14.9644 16.3664 15.2283L14.7911 17.1532C11.9515 15.8341 9.29256 13.3424 7.8778 10.4795L9.83438 8.85752C10.1053 8.58393 10.1856 8.20285 10.0752 7.86087C9.70394 6.77628 9.5133 5.61352 9.5133 4.41167C9.5133 3.88403 9.06178 3.44434 8.51996 3.44434H5.04827C4.50644 3.44434 3.85425 3.67884 3.85425 4.41167C3.85425 13.489 11.6104 21.0323 20.9217 21.0323C21.6341 21.0323 21.9151 20.4167 21.9151 19.8793V16.5083C21.9151 15.9806 21.4635 15.5409 20.9217 15.5409Z" fill="white"/>
</g>
<defs>
<clipPath id="clip0_288_82">
<rect width="24.0811" height="23.4506" fill="white" transform="translate(0.843994 0.512939)"/>
</clipPath>
</defs>
</svg>
