<svg width="117" height="89" viewBox="0 0 117 89" fill="none" xmlns="http://www.w3.org/2000/svg">
<path d="M98.5469 7.35531C91.1273 3.95089 83.1708 1.44262 74.8518 0.00602247C74.7004 -0.0216933 74.549 0.047596 74.4709 0.186175C73.4477 2.00617 72.3143 4.38049 71.5205 6.24668C62.5729 4.90708 53.6712 4.90708 44.9071 6.24668C44.1133 4.33891 42.9386 2.00617 41.9108 0.186175C41.8328 0.0522153 41.6814 -0.017074 41.53 0.00602247C33.2156 1.438 25.2591 3.94627 17.8349 7.35531C17.7706 7.38302 17.7155 7.42922 17.6788 7.48927C2.5872 30.036 -1.54706 52.0284 0.48107 73.7483C0.490247 73.8545 0.549897 73.9562 0.632491 74.0208C10.5896 81.3332 20.2346 85.7723 29.7008 88.7148C29.8522 88.761 30.0128 88.7055 30.1091 88.5808C32.3483 85.5229 34.3443 82.2986 36.0559 78.9081C36.1568 78.7094 36.0604 78.4738 35.854 78.3953C32.6879 77.1943 29.6732 75.73 26.7733 74.067C26.5439 73.9331 26.5255 73.6051 26.7366 73.4481C27.3469 72.9907 27.9571 72.515 28.5399 72.0346C28.6454 71.9468 28.7922 71.9283 28.9161 71.9837C47.9677 80.6819 68.593 80.6819 87.4197 71.9837C87.5436 71.9237 87.6905 71.9422 87.8006 72.0299C88.3833 72.5103 88.9936 72.9907 89.6085 73.4481C89.8195 73.6051 89.8058 73.9331 89.5764 74.067C86.6764 75.7623 83.6618 77.1943 80.4911 78.3907C80.2846 78.4692 80.1928 78.7094 80.2938 78.9081C82.042 82.294 84.038 85.5182 86.2359 88.5762C86.3277 88.7056 86.4929 88.761 86.6443 88.7148C96.1563 85.7723 105.801 81.3332 115.758 74.0208C115.846 73.9562 115.901 73.8592 115.91 73.7529C118.337 48.6425 111.844 26.8302 98.6983 7.49389C98.6662 7.42921 98.6112 7.38302 98.5469 7.35531ZM38.9007 60.5233C33.1651 60.5233 28.4389 55.2573 28.4389 48.7903C28.4389 42.3233 33.0733 37.0573 38.9007 37.0573C44.7741 37.0573 49.4543 42.3695 49.3626 48.7903C49.3626 55.2573 44.7282 60.5233 38.9007 60.5233ZM77.582 60.5233C71.8463 60.5233 67.1201 55.2573 67.1201 48.7903C67.1201 42.3233 71.7545 37.0573 77.582 37.0573C83.4553 37.0573 88.1356 42.3695 88.0438 48.7903C88.0438 55.2573 83.4553 60.5233 77.582 60.5233Z" fill="white"/>
</svg>
